# Blender v2.77 (sub 0) OBJ File: '155_Planets.blend'
# www.blender.org
mtllib Axes.mtl
o Cube
v 12.000000 -0.020121 -0.020121
v 12.000000 -0.020121 0.020121
v 0.000000 -0.020121 0.020121
v 0.000000 -0.020121 -0.020121
v 12.000000 0.020121 -0.020121
v 0.000000 0.020121 -0.020121
v 0.000000 0.020121 0.020121
v 11.999999 0.020121 0.020121
v -0.019946 -0.019948 12.000000
v -0.019946 0.019945 12.000000
v -0.019946 0.019946 0.000000
v -0.019946 -0.019946 -0.000000
v 0.019947 -0.019948 12.000000
v 0.019946 -0.019946 -0.000000
v 0.019946 0.019946 0.000000
v 0.019947 0.019945 11.999999
v 0.016153 12.000000 -0.016151
v 0.016153 12.000000 0.016156
v 0.016154 -0.000000 0.016154
v 0.016154 0.000000 -0.016153
v -0.016154 12.000000 -0.016151
v -0.016154 0.000000 -0.016154
v -0.016154 -0.000000 0.016154
v -0.016154 11.999999 0.016156
vt 0.388796 0.608743
vt 0.104283 0.893257
vt 0.104283 0.608743
vt 0.388796 0.608743
vt 0.104283 0.893257
vt 0.104283 0.608743
vt 0.388796 0.608743
vt 0.104283 0.893257
vt 0.388796 0.608743
vt 0.104283 0.893257
vt 0.104283 0.608743
vt 0.388796 0.608743
vt 0.104283 0.608743
vt 0.388796 0.608743
vt 0.104283 0.893257
vt 0.361629 0.136371
vt 0.141293 0.356707
vt 0.141293 0.136371
vt 0.361629 0.136371
vt 0.141293 0.356707
vt 0.141293 0.136371
vt 0.361629 0.136371
vt 0.141293 0.356707
vt 0.361629 0.136371
vt 0.141293 0.356707
vt 0.141293 0.136371
vt 0.361629 0.136371
vt 0.141293 0.136371
vt 0.361629 0.136371
vt 0.141293 0.356707
vt 0.853118 0.648882
vt 0.653803 0.848197
vt 0.653803 0.648882
vt 0.853118 0.648882
vt 0.653803 0.848197
vt 0.653803 0.648882
vt 0.853118 0.648882
vt 0.653803 0.848197
vt 0.853118 0.648882
vt 0.653803 0.848197
vt 0.653803 0.648882
vt 0.853118 0.648882
vt 0.653803 0.648882
vt 0.853118 0.648882
vt 0.653803 0.848197
vt 0.388796 0.893257
vt 0.388796 0.893257
vt 0.388796 0.893257
vt 0.388796 0.893257
vt 0.388796 0.893257
vt 0.361629 0.356707
vt 0.361629 0.356707
vt 0.361629 0.356707
vt 0.361629 0.356707
vt 0.361629 0.356707
vt 0.853118 0.848197
vt 0.853118 0.848197
vt 0.853118 0.848197
vt 0.853118 0.848197
vt 0.853118 0.848197
vn 0.000000 -1.000000 -0.000000
vn 0.000000 1.000000 0.000000
vn 1.000000 0.000000 0.000000
vn 0.000000 -0.000000 1.000000
vn -1.000000 0.000000 0.000000
vn 0.000000 0.000000 -1.000000
usemtl Material
s 1
f 2/1/1 4/2/1 1/3/1
f 6/4/2 8/5/2 5/6/2
f 5/7/3 2/8/3 1/3/3
f 8/9/4 3/10/4 2/11/4
f 7/12/5 4/2/5 3/13/5
f 1/14/6 6/15/6 5/6/6
f 10/16/5 12/17/5 9/18/5
f 14/19/3 16/20/3 13/21/3
f 13/22/4 10/23/4 9/18/4
f 16/24/2 11/25/2 10/26/2
f 15/27/6 12/17/6 11/28/6
f 9/29/1 14/30/1 13/21/1
f 18/31/3 20/32/3 17/33/3
f 22/34/5 24/35/5 21/36/5
f 21/37/2 18/38/2 17/33/2
f 24/39/4 19/40/4 18/41/4
f 23/42/1 20/32/1 19/43/1
f 17/44/6 22/45/6 21/36/6
f 2/1/1 3/46/1 4/2/1
f 6/4/2 7/47/2 8/5/2
f 5/7/3 8/48/3 2/8/3
f 8/9/4 7/47/4 3/10/4
f 7/12/5 6/49/5 4/2/5
f 1/14/6 4/50/6 6/15/6
f 10/16/5 11/51/5 12/17/5
f 14/19/3 15/52/3 16/20/3
f 13/22/4 16/53/4 10/23/4
f 16/24/2 15/52/2 11/25/2
f 15/27/6 14/54/6 12/17/6
f 9/29/1 12/55/1 14/30/1
f 18/31/3 19/56/3 20/32/3
f 22/34/5 23/57/5 24/35/5
f 21/37/2 24/58/2 18/38/2
f 24/39/4 23/57/4 19/40/4
f 23/42/1 22/59/1 20/32/1
f 17/44/6 20/60/6 22/45/6
